<?xml version="1.0" standalone="no"?>
<!DOCTYPE svg PUBLIC "-//W3C//DTD SVG 20010904//EN"
 "http://www.w3.org/TR/2001/REC-SVG-20010904/DTD/svg10.dtd">
<svg version="1.0" xmlns="http://www.w3.org/2000/svg"
 width="192.000000pt" height="192.000000pt" viewBox="0 0 192.000000 192.000000"
 preserveAspectRatio="xMidYMid meet">
<metadata>
Created by potrace 1.11, written by Peter Selinger 2001-2013
</metadata>
<g transform="translate(0.000000,192.000000) scale(0.100000,-0.100000)"
fill="#000000" stroke="none">
<path d="M939 1906 c6 -7 22 -11 36 -8 33 6 21 22 -17 22 -25 0 -28 -3 -19
-14z"/>
<path d="M790 1898 c0 -7 -17 -29 -37 -50 l-37 -38 62 27 c59 27 78 45 66 64
-8 13 -54 11 -54 -3z"/>
<path d="M645 1861 c-22 -10 -83 -62 -135 -115 l-94 -96 29 -30 c22 -23 31
-27 42 -18 9 7 12 21 8 36 -5 22 8 40 102 134 59 59 103 108 98 108 -6 0 -28
-9 -50 -19z"/>
<path d="M305 1660 l-29 -31 67 -66 c64 -65 67 -67 81 -48 14 19 10 24 -46 82
-52 53 -59 64 -48 77 22 27 5 17 -25 -14z"/>
<path d="M797 1502 l-97 -97 0 -543 0 -542 100 0 100 0 2 275 3 276 225 -261
c124 -144 230 -269 237 -277 10 -13 22 -7 88 47 41 35 74 67 73 71 -2 4 -86
105 -188 225 -102 120 -186 221 -188 226 -2 4 38 8 90 8 l93 0 98 98 97 97 0
150 0 150 -98 98 -97 97 -220 0 -220 0 -98 -98z m533 -247 l0 -145 -180 0
-180 0 -34 -67 -35 -68 -1 213 0 212 215 0 215 0 0 -145z"/>
<path d="M216 1563 c-5 -12 10 -34 54 -77 l60 -61 -117 -117 -118 -118 88 -87
c84 -85 87 -87 87 -58 0 24 -12 43 -55 85 l-55 54 98 101 c54 55 103 112 109
126 11 25 7 31 -61 98 -39 39 -74 71 -78 71 -3 0 -9 -8 -12 -17z"/>
<path d="M153 1481 c-10 -16 -8 -22 8 -37 19 -17 19 -19 -35 -73 -48 -48 -95
-126 -84 -137 2 -2 48 41 101 94 l97 98 -38 37 c-35 34 -38 35 -49 18z"/>
<path d="M272 1217 c-22 -23 -22 -24 -3 -41 18 -16 19 -16 25 20 9 46 5 50
-22 21z"/>
<path d="M20 1155 c0 -24 16 -46 82 -112 l83 -83 -83 -83 c-53 -54 -82 -90
-82 -105 0 -12 3 -22 8 -22 4 0 54 47 112 105 l105 105 -113 113 c-106 106
-112 110 -112 82z"/>
<path d="M0 1026 c0 -16 7 -38 17 -48 15 -17 15 -19 0 -36 -17 -19 -23 -62 -9
-62 4 0 26 18 47 40 l39 40 -47 48 -47 47 0 -29z"/>
<path d="M183 808 l-83 -83 115 -115 115 -115 -66 -66 c-58 -58 -63 -67 -49
-79 14 -12 26 -4 90 60 71 71 73 74 60 99 -7 14 -54 66 -104 116 -50 49 -91
94 -91 99 0 6 23 34 51 62 40 40 50 57 47 78 -3 25 -7 23 -85 -56z"/>
<path d="M260 745 c-11 -13 -9 -20 10 -40 29 -31 33 -27 25 19 -8 39 -16 44
-35 21z"/>
<path d="M40 699 c0 -31 33 -85 83 -136 59 -61 60 -63 43 -82 -18 -19 -16 -51
2 -51 4 0 23 16 42 35 l34 35 -102 103 c-56 56 -102 99 -102 96z"/>
<path d="M340 355 l-65 -65 45 -43 c24 -23 34 -30 22 -16 -12 14 -22 29 -22
34 0 5 25 35 55 65 39 40 54 61 49 73 -3 9 -9 17 -13 17 -4 0 -36 -29 -71 -65z"/>
<path d="M445 290 l-29 -30 89 -91 c89 -89 116 -109 165 -124 17 -5 -8 26 -84
103 -94 95 -108 113 -97 126 13 16 9 46 -7 46 -4 0 -21 -14 -37 -30z"/>
<path d="M730 100 c0 -3 13 -19 30 -35 16 -15 27 -32 24 -36 -7 -12 46 -23 57
-12 18 18 -1 39 -56 64 -30 14 -55 23 -55 19z"/>
<path d="M939 14 c-9 -11 -5 -14 25 -14 41 0 49 15 11 22 -14 3 -30 -1 -36 -8z"/>
</g>
</svg>
